<svg width="120" height="120" xmlns="http://www.w3.org/2000/svg" xmlns:xlink="http://www.w3.org/1999/xlink">
  <defs>
    <clipPath id="circle">
      <circle cx="60" cy="60" r="58"/>
    </clipPath>
  </defs>
  
  <!-- Background -->
  <rect width="120" height="120" fill="#2d3748" rx="8"/>
  
  <!-- Profile illustration based on the updated photo -->
  <g clip-path="url(#circle)">
    <!-- Face base with warmer skin tone -->
    <ellipse cx="60" cy="52" rx="28" ry="32" fill="#deb887"/>
    
    <!-- Hair - dark and wavy -->
    <path d="M32 30 Q45 20 60 22 Q75 20 88 30 Q88 40 85 45 Q82 42 78 45 Q74 42 70 45 Q66 42 60 45 Q54 42 50 45 Q46 42 42 45 Q38 42 35 45 Q32 40 32 30" fill="#1a1a1a"/>
    
    <!-- Forehead hair line -->
    <path d="M35 35 Q50 32 60 32 Q70 32 85 35" stroke="#1a1a1a" stroke-width="2" fill="none"/>
    
    <!-- Eyes with more detail -->
    <ellipse cx="50" cy="48" rx="4" ry="3" fill="white"/>
    <ellipse cx="70" cy="48" rx="4" ry="3" fill="white"/>
    <circle cx="50" cy="48" r="2" fill="#2d3748"/>
    <circle cx="70" cy="48" r="2" fill="#2d3748"/>
    <circle cx="50.5" cy="47.5" r="0.5" fill="white"/>
    <circle cx="70.5" cy="47.5" r="0.5" fill="white"/>
    
    <!-- Eyebrows - fuller -->
    <path d="M44 42 Q50 40 56 42" stroke="#1a1a1a" stroke-width="3" fill="none"/>
    <path d="M64 42 Q70 40 76 42" stroke="#1a1a1a" stroke-width="3" fill="none"/>
    
    <!-- Nose with nostrils -->
    <path d="M60 50 L58 58 L62 58 Z" fill="#d4a574"/>
    <ellipse cx="58" cy="57" rx="1" ry="0.5" fill="#c69c6d"/>
    <ellipse cx="62" cy="57" rx="1" ry="0.5" fill="#c69c6d"/>
    
    <!-- Big warm smile with teeth -->
    <path d="M48 62 Q60 75 72 62" stroke="#8b4513" stroke-width="2" fill="none"/>
    <path d="M50 65 Q60 72 70 65 Q60 70 50 65" fill="#ffe4e1"/>
    
    <!-- Full beard -->
    <path d="M42 65 Q45 75 50 82 Q55 88 60 89 Q65 88 70 82 Q75 75 78 65 Q78 72 75 78 Q70 85 60 87 Q50 85 45 78 Q42 72 42 65" fill="#2d2d2d"/>
    
    <!-- Mustache -->
    <path d="M52 60 Q60 63 68 60 Q64 65 60 65 Q56 65 52 60" fill="#2d2d2d"/>
    
    <!-- Winter jacket - navy blue with hood -->
    <rect x="30" y="80" width="60" height="40" fill="#1e3a8a" rx="8"/>
    <rect x="35" y="85" width="50" height="35" fill="#1e40af" rx="5"/>
    
    <!-- Jacket hood outline -->
    <path d="M35 85 Q45 75 60 75 Q75 75 85 85" stroke="#1e3a8a" stroke-width="3" fill="none"/>
    
    <!-- Jacket zipper -->
    <line x1="60" y1="85" x2="60" y2="115" stroke="#9ca3af" stroke-width="2"/>
    <rect x="59" y="88" width="2" height="3" fill="#6b7280"/>
    <rect x="59" y="95" width="2" height="3" fill="#6b7280"/>
    <rect x="59" y="102" width="2" height="3" fill="#6b7280"/>
    
    <!-- Jacket collar -->
    <path d="M45 85 Q52 82 60 82 Q68 82 75 85" stroke="#1e3a8a" stroke-width="4" fill="none"/>
  </g>
  
  <!-- Border -->
  <circle cx="60" cy="60" r="58" fill="none" stroke="#569cd6" stroke-width="2"/>
</svg>